<svg width="18" height="13" viewBox="0 0 18 13" fill="none" xmlns="http://www.w3.org/2000/svg">
<path fill-rule="evenodd" clip-rule="evenodd" d="M5.53846 6.7325C5.53846 4.82021 7.08825 3.27 9 3.27C10.9118 3.27 12.4615 4.82021 12.4615 6.7325C12.4615 8.64479 10.9118 10.195 9 10.195C7.08825 10.195 5.53846 8.64479 5.53846 6.7325ZM9 4.655C7.85295 4.655 6.92308 5.58513 6.92308 6.7325C6.92308 7.87987 7.85295 8.81 9 8.81C10.1471 8.81 11.0769 7.87987 11.0769 6.7325C11.0769 5.58513 10.1471 4.655 9 4.655Z" fill="white" fill-opacity="0.5"/>
<path fill-rule="evenodd" clip-rule="evenodd" d="M1.91393 5.48263C1.52705 6.04026 1.38462 6.47646 1.38462 6.7325C1.38462 6.98854 1.52705 7.42474 1.91393 7.98237C2.28791 8.52141 2.84379 9.10573 3.54708 9.64565C4.95672 10.7278 6.88934 11.58 9 11.58C11.1107 11.58 13.0433 10.7278 14.4529 9.64565C15.1562 9.10573 15.7121 8.52141 16.0861 7.98237C16.4729 7.42474 16.6154 6.98854 16.6154 6.7325C16.6154 6.47646 16.4729 6.04026 16.0861 5.48263C15.7121 4.94359 15.1562 4.35927 14.4529 3.81935C13.0433 2.73716 11.1107 1.885 9 1.885C6.88934 1.885 4.95672 2.73716 3.54708 3.81935C2.84379 4.35927 2.28791 4.94359 1.91393 5.48263ZM2.70407 2.72065C4.30122 1.4945 6.52245 0.5 9 0.5C11.4776 0.5 13.6988 1.4945 15.2959 2.72065C16.096 3.33489 16.7568 4.02016 17.2236 4.69299C17.6775 5.34724 18 6.06521 18 6.7325C18 7.39979 17.6775 8.11776 17.2236 8.77201C16.7568 9.44484 16.096 10.1301 15.2959 10.7444C13.6988 11.9705 11.4776 12.965 9 12.965C6.52245 12.965 4.30122 11.9705 2.70407 10.7444C1.90396 10.1301 1.24321 9.44484 0.776403 8.77201C0.322496 8.11776 0 7.39979 0 6.7325C0 6.06521 0.322496 5.34724 0.776403 4.69299C1.24321 4.02016 1.90396 3.33489 2.70407 2.72065Z" fill="white" fill-opacity="0.5"/>
</svg>
