<svg width="500" height="150" viewBox="0 0 500 150" fill="none" xmlns="http://www.w3.org/2000/svg">
<g clip-path="url(#clip0_66_119)">
<rect width="528.061" height="179.779" transform="translate(-13.75 -15)" fill="#3A3E42"/>
<mask id="mask0_66_119" style="mask-type:alpha" maskUnits="userSpaceOnUse" x="1" y="-15" width="529" height="180">
<rect x="1" y="-15" width="529" height="180" fill="#F5C678"/>
<rect x="1" y="-15" width="529" height="180" fill="#575C63"/>
</mask>
<g mask="url(#mask0_66_119)">
<path d="M488.354 71.932C492.774 63.6439 505.052 52.4138 509.947 49.5316M485.648 53.7628C486.748 54.1545 506.067 65.6807 510.359 68.3745M-21.1394 112.762C-20.0469 103.432 -12.7111 88.4973 -9.20485 84.0282M-30.2863 96.8312C-29.1196 96.7949 -6.92669 100.48 -1.94799 101.423M176.062 -28.2761C173.436 -30.1511 169.441 -33.9344 168.743 -37.1546C168.156 -39.8635 172.214 -47.25 172.302 -51.6989C172.32 -52.598 172.393 -53.5923 172.26 -54.3946C171.718 -58.6476 173.642 -66.67 175.516 -65.704C177.571 -64.6451 181.64 -61.9198 183.78 -59.8374C187.623 -62.6519 199.372 -63.7794 203.583 -61.0909C204.457 -62.3909 209.665 -68.3209 210.331 -67.5164C212.163 -65.3037 215.139 -57.8372 214.35 -53.3187C214.864 -49.3927 215.256 -46.7643 216.688 -43.0635C219.153 -36.6887 217.108 -34.821 211.526 -29.9871M195.481 12.4171C189.822 14.368 178.479 14.5224 176.967 4.42892C176.498 1.29649 176.998 -1.80004 178.879 -4.39899C182.805 -9.82433 192.775 -9.26473 195.857 -3.30955C196.194 -2.65796 196.636 -0.551011 196.557 -0.642284C194.409 -3.13146 187.347 -1.05294 187.793 3.42328C188.134 6.84105 191.575 8.91087 195.542 8.37762M179.075 -33.6301C185.134 -38.4441 194.177 -38.9671 201.406 -37.1484C203.56 -36.6065 208.067 -34.3333 209.256 -33.0282M260.434 170.612C264.854 162.324 277.132 151.094 282.027 148.211M257.728 152.443C258.828 152.834 278.147 164.361 282.439 167.054M518.527 100.048C521.054 102.92 523.748 105.643 525.384 109.166C532.415 124.307 531.417 149.349 527.447 165.303M518.527 100.048C512.725 104.541 502.862 101.424 500.995 93.426C500.063 89.4288 499.584 85.1665 499.42 80.3599C503.556 80.7238 508.783 81.708 512.505 82.85C519.522 85.003 521.807 94.2385 518.527 100.048ZM527.447 165.303C529.89 150.527 538.565 141.122 547.482 137.385C551.527 135.69 555.456 134.925 560.066 134.625C559.929 138.064 558.475 144.61 557.504 147.983C553.539 161.76 539.696 163.296 527.447 165.303ZM-10.6441 58.4536C-7.33829 60.3781 -3.92084 62.109 -1.25406 64.9332C10.2072 77.0711 17.1849 101.142 18.4677 117.532M-10.6441 58.4536C-14.7267 64.5514 -25.0688 64.7157 -29.3704 57.7198C-31.5203 54.2233 -33.3235 50.3316 -35 45.8239C-30.9613 44.8601 -25.6917 44.1397 -21.7994 44.0451C-14.4617 43.8669 -9.37107 51.9045 -10.6441 58.4536ZM18.4677 117.532C16.1094 102.743 21.3618 91.0757 28.6387 84.7085C31.9392 81.8206 35.4241 79.8518 39.7019 78.1082C40.6604 81.4133 41.3526 88.0837 41.4991 91.5902C42.0974 105.914 29.4522 111.752 18.4677 117.532ZM123.104 -41.5504C132.211 -43.851 148.779 -42.3129 154.204 -40.6275M134.734 -55.7695C135.184 -54.6922 139.641 -32.6415 140.533 -27.6534M-15.1644 -5.80371C-14.4939 -5.37158 -15.4161 -4.68673 -15.8826 -4.68935C-17.1468 -4.69644 -17.6748 -6.19969 -17.3931 -7.2402C-16.8893 -9.10143 -14.6837 -9.78346 -13.0097 -9.1468C-10.5529 -8.21248 -9.69753 -5.22371 -10.7069 -2.93075C-12.0523 0.125405 -15.8487 1.15753 -18.7556 -0.231904C-22.4136 -1.98038 -23.6237 -6.59467 -21.8505 -10.1132C-19.703 -14.3745 -14.2655 -15.7633 -10.1367 -13.6042C-5.27104 -11.0598 -3.70317 -4.79609 -6.24949 -0.0577846C-9.18932 5.41278 -16.2813 7.16 -21.6285 4.22554C-27.7044 0.891231 -29.6312 -7.03027 -26.308 -12.9861C-22.5799 -19.6677 -13.8279 -21.7741 -7.26373 -18.0617C0.0237271 -13.9402 2.30994 -4.35707 -1.79204 2.81518M531.464 15.5284C531.667 16.2997 530.524 16.1831 530.182 15.8665C529.253 15.0084 529.878 13.5426 530.788 12.9645C532.415 11.9305 534.503 12.915 535.31 14.5144C536.493 16.8614 535.108 19.6447 532.816 20.6563C529.761 22.0046 526.262 20.2053 525.054 17.2186C523.533 13.4601 525.753 9.23765 529.436 7.83671C533.896 6.13997 538.846 8.78311 540.438 13.1623C542.313 18.3229 539.244 24.0043 534.168 25.7841C528.307 27.8389 521.894 24.3442 519.926 18.5707C517.691 12.0104 521.613 4.86328 528.084 2.70888C535.343 0.291966 543.224 4.64144 545.565 11.8102C548.164 19.7688 543.387 28.385 535.52 30.9119M133.971 169.486C131.138 170.913 128.66 172.42 125.958 173.94C120.786 176.849 107.9 174.986 103.806 170.964C102.778 169.953 102.338 168.24 102.002 166.873C100.4 160.35 109.23 158.304 112.442 154.454C112.962 153.832 114.101 149.476 114.72 148.225C118.188 141.221 125.021 135.675 133.156 135.618C136.288 135.538 139.056 135.827 141.49 136.409C148.258 138.026 153.284 141.561 156.488 148.049C156.83 148.752 157.615 150.82 158.257 151.45C160.231 153.389 168.216 158.823 168.216 158.823C172.467 159.143 184.886 160.097 182.968 167.003C182.654 168.131 177.288 170.75 176.316 170.964C162.099 174.093 157.913 167.458 152.65 164.417C149.28 162.47 144.648 160.614 142.28 156.774C141.008 154.712 140.956 152.031 139.842 149.89M102.191 162.268C99.7188 161.751 92.8746 160.891 96.4792 155.5C99.3451 151.215 110.011 152.486 113.485 150.773M149.185 139.663C150.699 139.409 152.425 138.784 154.224 138.404C159.065 137.38 164.047 135.831 168.62 133.938C176.491 130.679 184.077 126.228 192.892 126.047C197.516 125.953 202.397 126.981 206.871 128.096C210.203 128.927 214.853 131.466 217.109 134.157C219.027 136.446 220.025 138.804 222.681 140.445C224.689 141.686 234.594 144.246 236.005 146.166C237.461 148.146 236.815 149.91 236.508 150.318C233.272 154.632 220.978 150.891 216.761 149.769C216.023 149.573 215.291 149.388 214.567 149.154C213.748 148.889 212.899 148.722 212.087 148.437C203.875 145.415 199.768 150.171 195.386 151.681C192.024 152.839 189.017 154.029 185.618 154.953C181.703 156.426 177.343 156.978 173.74 159.214M199.175 126.494C203.407 125.072 204.333 118.369 204.022 114.526C203.814 111.952 201.654 109.044 202.573 106.416C203.479 103.827 206.833 104.032 208.285 105.997C212.267 111.388 208.953 123.393 203.792 127.321M113.271 152.108C114.94 152.678 115.459 152.576 115.949 153.708C116.403 154.758 114.166 155.282 112.62 154.307M145.432 160.853C140.513 161.585 137.796 162.046 135.026 166.472C134.452 167.388 133.839 170.06 133.923 171.182C134.142 174.109 140.783 175.626 144.333 175.271C148.932 174.811 154.86 168.392 156.234 167.629M110.646 29.3276C107.644 19.3126 100.003 13.6188 98.9064 13.1724C94.7144 11.4665 92.8175 24.9234 92.6811 26.912C92.538 28.9993 91.2551 33.5356 91.2863 33.4479C89.9832 37.1996 86.2613 40.0903 83.6638 43.015C80.8966 46.1307 78.1316 49.2643 75.2248 52.2639C73.1436 54.4117 69.8152 57.3081 68.7223 60.1944C66.3865 66.3631 68.9005 73.6962 71.3819 79.4204C72.8495 82.806 75.054 86.1537 78.4453 90.0303M105.311 30.6863C107.751 30.6579 110.008 29.4547 112.489 29.3449C123.509 28.8575 132.801 34.0446 140.908 40.8175C142.932 42.5085 144.199 44.8529 146.083 46.5899C148.35 45.9364 150.602 44.8195 152.915 44.0973C156.319 43.034 163.247 41.6302 166.243 44.422C168.035 46.0929 166.197 48.8257 165.543 50.5978C162.659 58.42 160.147 66.5771 154.086 72.7133C153.098 78.5507 151.776 84.2807 150.125 89.9624C149.039 93.7012 148.283 98.1811 145.175 101.027C137.954 107.641 123.474 107.091 114.36 106.187C109.98 105.973 106.531 104.913 102.323 103.856C95.6876 101.955 82.6612 94.6119 79.0156 90.4468M86.168 65.8323C80.8307 70.636 95.8215 78.6388 98.1152 74.3302M98.1152 74.3302C96.5096 78.9859 99.1059 80.2182 103.154 81.9786C107.591 83.9086 111.396 85.5793 112.674 79.5877M98.1152 74.3302C97.9903 73.2673 97.8271 72.6666 97.6431 71.8314C96.4825 66.5653 105.007 70.9761 103.231 73.335C102.355 74.4992 99.4572 73.976 98.1152 74.3302ZM98.1152 74.3302C96.1409 76.5966 94.9636 79.4556 94.2006 82.3028M88.7161 73.2659C88.0096 74.9449 86.9578 76.8013 87.4888 78.6792C87.8565 79.9792 89.5826 81.6554 90.5369 82.5054C94.4318 85.9742 103.173 91.3819 104.522 82.7218M161.552 52.4264C162.198 51.071 162.859 49.5486 163.407 48.3091C164.004 46.9589 158.676 50.177 157.998 50.7071C156.782 51.6587 155.403 53.1622 154.414 54.4108C152.682 56.5974 154.794 60.522 155.864 62.7296M94.4143 32.9109C96.2523 32.3317 97.3596 31.7298 99.3013 30.5689C100.661 29.756 103.178 29.4873 100.358 21.4641C99.9158 20.2053 98.6857 18.4526 97.6682 16.9956C97.6682 16.9956 96.6286 19.0943 96.485 22.7666M-24.3034 133.073C-26.6898 140.172 -25.9268 148.844 -22.6766 155.505C-7.66048 158.043 7.25279 160.564 22.6355 160.08C38.0181 159.597 53.4532 156.123 68.994 152.624C71.2523 147.226 71.4882 138.832 69.8758 133.432M71.3718 -35.9492C71.3718 -34.3836 68.9493 -32.846 64.3508 -31.4926C59.7522 -30.1393 53.1416 -29.0185 45.1912 -28.2443C37.2408 -27.4701 28.2342 -27.0701 19.0874 -27.0849C9.94057 -27.0997 0.979833 -27.5288 -6.88357 -28.3286C-14.747 -29.1285 -21.2325 -30.2704 -25.6807 -31.6384C-30.1288 -33.0064 -32.3809 -34.5516 -32.2078 -36.1169C-31.7024 -43.6075 -27.7513 -52.3412 -24.7948 -58.4231M61.9806 -58.2689C66.4437 -52.6416 69.6935 -44.9568 71.3252 -36.2903M241.073 15.3946C233.667 19.9442 227.673 39.4109 231.07 49.0232M247.811 17.7839C242.661 18.0149 236.415 24.5758 234.898 35.3288C233.93 42.1871 236.384 47.5186 242.809 50.4872M233.68 16.9182C230.395 22.927 226.266 34.9325 225.391 43.2338M288.135 61.3316C269.603 58.4497 251.512 63.7066 246.904 79.5638C244.327 88.4324 246.689 99.2424 249.042 107.9C250.807 114.394 252.746 123.048 258.651 127.061C261.423 128.945 268.511 128.316 268.511 128.316C268.511 128.316 275.01 128.794 275.453 125.961C276.069 122.021 271.675 120.296 270.236 118.361C268.077 115.456 267.941 111.038 267.134 107.695M261.265 76.418L269.311 82.405M269.122 74.5492C266.002 77.1548 262.769 80.0936 260.987 83.8106M260.562 96.8388C263.656 106.292 271.085 111.953 276.107 114C276.107 114 280.413 115.407 283.486 115.658M280.768 96.9969C280.768 96.9969 280.983 102.938 281.561 106.937C282.391 112.683 284.34 118.744 288.407 123.999C291.943 128.568 299.211 128.645 306.723 127.225C306.723 127.225 310.728 125.586 308.154 121.298C306.293 118.198 303.865 119.52 302.253 113.514C300.911 105.992 305.296 109.395 308.431 99.1562M319.999 92.7664C322.458 90.284 324.622 88.9971 327.591 87.4932C328.494 87.0356 328.913 85.7913 329.708 84.3277C332.488 79.2109 339.561 76.9431 339.898 78.4277C340.463 80.9258 341.33 85.9134 341.583 87.6734C345.897 87.4592 347.044 88.1489 349.239 89.6557M303.893 117.359C306.889 117.002 317.441 117.58 321.114 117.804C327.534 118.196 336.913 120.949 341.367 120.888C349.432 120.776 358.207 118.816 366.189 117.663C370.96 116.975 376.41 117.735 377.883 112.798C378.763 109.848 374.539 105.441 368.314 105.605C362.411 105.76 351.211 106.582 346.249 104.002C338.197 99.815 330.212 99.3247 325.202 97.3227C318.922 94.4919 312.728 81.7029 312.728 81.7029C312.728 81.7029 306.96 70.2501 296.399 64.9142M265.395 62.5089C263.237 60.072 260.819 50.5747 270.222 43.9874C277.955 38.5703 294.131 39.0295 298.151 49.1823C300.474 55.0493 299.451 62.0511 294.439 66.1497C288.821 70.7434 283.504 69.7226 283.504 69.7226C283.504 69.7226 287.455 65.7496 288.136 61.3193C288.539 58.6964 287.796 55.9132 284.409 53.6993C278.713 49.9763 270.413 54.2258 270.245 61.1617M348.269 90.9564C351.94 85.8826 361.444 84.4593 361.502 85.3346C361.741 88.9473 361.087 93.7538 360.562 95.356C362.474 97.406 361.544 101.053 361.781 101.127C366.069 102.46 365.956 101.498 368.237 105.542M179.523 67.8164C189.676 64.5649 203.846 64.1813 213.382 66.4491M178.029 76.3491C187.427 73.9656 203.409 72.0409 215.151 74.6136M415.394 2.21679C415.598 3.80454 412.97 3.31556 413.486 5.28917C414.577 9.4608 429.162 14.5835 433.28 14.468C437.568 14.3476 437.775 11.1538 437.775 11.1538M437.775 11.1538C437.775 11.1538 436.056 14.972 440.511 16.7744C453.809 22.155 458.284 21.0721 458.918 18.896C459.241 17.788 457.928 15.9263 458.726 15.5178M437.775 11.1538C437.775 11.1538 443.942 9.50577 443.812 8.47341C443.705 7.61782 434.834 5.01665 434.349 5.85705C433.717 6.95172 437.775 11.1538 437.775 11.1538ZM416.318 8.344C415.858 10.078 416.499 13.4889 417.681 12.7547C418.435 12.2862 419.882 10.4076 419.882 10.4076M451.814 20.4129C451.814 20.4129 451.343 22.1989 451.407 23.0784C451.553 25.1087 455.368 21.837 455.737 20.5979M416.633 -62.6463C416.633 -62.6463 422.433 -51.7462 419.914 -47.9677C417.792 -44.7869 409.759 -42.1409 409.759 -42.1409M507.53 -31.7195C507.53 -31.7195 495.952 -27.8374 494.629 -22.9863C493.152 -17.573 499.804 -11.2816 499.804 -11.2816M348.064 5.96077C349.157 -3.36866 356.492 -18.3035 359.999 -22.7727M338.917 -9.96968C340.084 -10.006 362.277 -6.32098 367.256 -5.37829M145.899 22.8943L132.977 15.5652L135.954 1.01009L150.716 -0.656353L156.863 12.8688L145.899 22.8943ZM491.291 -68L490.865 -60.1864L497.06 -55.4054L489.497 -53.3964L486.864 -46.0273L482.617 -52.5994L474.795 -52.826L479.732 -58.8966L477.531 -66.4058L484.83 -63.5857L491.291 -68ZM181.002 -36.4871C174.393 -27.4731 166.235 -7.21373 168.304 7.04149C170.496 16.7143 174.112 18.3606 190.008 18.1809C202.499 18.0397 216.555 20.3657 219.801 7.70462C221.069 -6.9079 212.652 -30.2978 206.12 -37.7092C205.548 -38.311 201.862 -40.9829 198.232 -41.6435C193.771 -42.4552 189.501 -42.9124 183.576 -38.9729C183.576 -38.9729 181.944 -37.7151 181.002 -36.4871ZM26.1595 63.6549C26.1595 66.6911 23.6709 69.1525 20.6011 69.1525C17.5312 69.1525 15.0427 66.6911 15.0427 63.6549C15.0427 60.6187 17.5312 58.1574 20.6011 58.1574C23.6709 58.1574 26.1595 60.6187 26.1595 63.6549ZM37.6798 -7.37522C37.6798 -4.33901 35.1912 -1.87768 32.1213 -1.87768C29.0515 -1.87768 26.5629 -4.33901 26.5629 -7.37522C26.5629 -10.4114 29.0515 -12.8728 32.1213 -12.8728C35.1912 -12.8728 37.6798 -10.4114 37.6798 -7.37522ZM108.883 170.168C108.562 169.256 106.997 168.23 106.792 167.95C105.566 166.275 107.009 165.278 109.96 165.813C113.425 166.442 114.104 169.388 110.587 169.207C109.862 169.17 109.144 169.543 108.883 170.168ZM126.117 155.591C120.335 156.134 125.407 159.303 128.349 157.827C129.708 157.145 127.953 155.637 126.117 155.591ZM370.744 -53.0726C370.744 -50.0364 368.256 -47.5751 365.186 -47.5751C362.116 -47.5751 359.627 -50.0364 359.627 -53.0726C359.627 -56.1088 362.116 -58.5702 365.186 -58.5702C368.256 -58.5702 370.744 -56.1088 370.744 -53.0726ZM416.008 56.505C416.008 59.5412 413.519 62.0025 410.449 62.0025C407.379 62.0025 404.891 59.5412 404.891 56.505C404.891 53.4687 407.379 51.0074 410.449 51.0074C413.519 51.0074 416.008 53.4687 416.008 56.505ZM241.201 115.981C241.201 119.018 238.712 121.479 235.643 121.479C232.573 121.479 230.084 119.018 230.084 115.981C230.084 112.945 232.573 110.484 235.643 110.484C238.712 110.484 241.201 112.945 241.201 115.981ZM95.9394 53.0915C94.4015 52.2261 91.8011 52.6155 90.1425 53.1878C84.6089 55.0973 93.8067 58.7323 97.033 58.2117C99.6651 57.787 98.3379 53.8357 95.9394 53.0915ZM120.42 67.615C112.75 68.8461 120.732 77.1477 125.278 75.6874C128.046 74.798 123.349 67.7187 120.42 67.615ZM69.5158 133.086C69.5158 135.698 48.5622 137.815 22.7146 137.815C-3.13297 137.815 -24.0866 135.698 -24.0866 133.086C-24.0866 130.475 -3.13297 128.358 22.7146 128.358C48.5622 128.358 69.5158 130.475 69.5158 133.086ZM28.5644 169.759C28.5644 174.46 24.715 178.271 19.9664 178.271C15.2178 178.271 11.3684 174.46 11.3684 169.759C11.3684 165.058 15.2178 161.247 19.9664 161.247C24.715 161.247 28.5644 165.058 28.5644 169.759ZM22.7902 159.854C22.7902 161.256 21.5334 162.393 19.983 162.393C18.4327 162.393 17.1759 161.256 17.1759 159.854C17.1759 158.453 18.4327 157.316 19.983 157.316C21.5334 157.316 22.7902 158.453 22.7902 159.854ZM174.889 112.142L161.17 117.844L151.508 106.559L159.256 93.8823L173.706 97.3332L174.889 112.142ZM99.0304 125.703L91.5253 127.918L89.0957 135.357L84.6694 128.904L76.8442 128.892L81.6136 122.688L79.207 115.242L86.581 117.861L92.9188 113.271L92.7068 121.093L99.0304 125.703ZM386.44 96.8336C394.567 91.9736 393.372 84.6579 386.665 71.7107C396.585 88.7427 400.398 87.1743 408.53 83.2075C402.763 86.9478 399.023 92.9953 407.996 108.646C401.465 97.3709 395.18 91.3714 386.44 96.8336ZM528.111 -41.9015C536.585 -37.6736 542.104 -42.622 549.397 -55.2483C540.393 -37.7148 543.77 -35.3471 551.493 -30.6345C545.235 -33.477 538.125 -33.3696 529.775 -17.3779C535.754 -28.9546 537.422 -37.4818 528.111 -41.9015ZM61.8521 -58.5084C61.8521 -55.0814 42.505 -52.3032 18.6392 -52.3032C-5.22664 -52.3032 -24.5737 -55.0814 -24.5737 -58.5084C-24.5737 -61.9355 -5.22664 -64.7137 18.6392 -64.7137C42.505 -64.7137 61.8521 -61.9355 61.8521 -58.5084ZM246.53 -54.2416L246.104 -46.428L252.299 -41.647L244.736 -39.638L242.103 -32.2689L237.856 -38.841L230.034 -39.0676L234.971 -45.1382L232.77 -52.6474L240.069 -49.8273L246.53 -54.2416ZM301.745 27.6976L288.341 21.29L290.293 6.56236L304.903 3.86779L311.981 16.9301L301.745 27.6976ZM326.06 137.439L330.582 143.825L338.407 143.721L333.73 149.995L336.247 157.404L328.835 154.895L322.566 159.579L322.662 151.754L316.27 147.239L323.742 144.912L326.06 137.439ZM64.111 4.17627C49.9237 11.4548 35.2699 16.6795 21.1625 24.5136C19.022 22.5132 17.5912 21.0876 14.8244 20.2054C9.12278 18.3875 3.66892 22.305 4.64215 28.4508C5.30158 32.6151 8.49867 35.4054 12.5937 35.888C13.292 35.9703 16.3149 35.376 16.1468 36.8801C16.0339 37.8906 15.3201 39.0816 15.1199 40.1501C14.2297 44.9001 18.1707 49.0396 22.7483 50.3601C28.4308 51.9993 31.0985 45.7984 30.78 44.0069C30.4729 42.2793 29.3475 39.8304 27.2974 37.9605C41.4015 30.9436 55.5153 23.0436 69.4016 15.531C71.8922 17.504 72.4787 19.8028 76.146 20.4434C82.3328 21.524 86.3244 16.3144 84.1926 10.4579C82.8046 6.64461 76.2136 6.21626 76.1453 4.3311C76.0992 3.05754 77.7624 1.97952 77.3592 -0.244116C76.4753 -5.11811 69.1732 -6.5657 65.352 -4.46601C62.389 -2.83793 58.3958 3.7642 64.111 4.17627ZM26.6996 -36.3841C32.8459 -36.6986 38.9133 -36.2029 45.098 -36.7291C45.6458 -35.6678 46.0011 -34.9266 46.9177 -34.1643C48.8068 -32.5934 51.3066 -33.1149 51.6991 -35.4714C51.965 -37.068 51.1227 -38.5826 49.6651 -39.4164C49.4166 -39.5585 48.2241 -39.8338 48.4707 -40.345C48.6363 -40.6883 49.0466 -40.9993 49.2516 -41.3494C50.1632 -42.9055 49.2107 -45.023 47.677 -46.2345C45.7732 -47.7384 44.0255 -45.9499 43.924 -45.2575C43.8261 -44.5896 43.9429 -43.5316 44.4731 -42.5315C38.3897 -42.2972 32.1946 -41.7484 26.1312 -41.3015C25.4504 -42.4096 25.5148 -43.3269 24.235 -44.1481C22.0759 -45.5335 19.9594 -44.3135 20.0315 -41.8736C20.0784 -40.2849 22.4671 -39.0677 22.2614 -38.3821C22.1225 -37.9189 21.3744 -37.8016 21.2513 -36.9407C20.9816 -35.0539 23.5088 -33.3571 25.1813 -33.4917C26.4781 -33.596 28.7659 -35.3141 26.6996 -36.3841ZM485.761 139.14C478.143 139.14 478.486 147.661 477.647 147.818C474.564 148.396 472.623 151.493 472.595 153.635C472.536 158.12 475.639 162.27 480.184 161.951C485.871 161.553 490.052 153.537 490.052 153.537C490.052 153.537 499.274 156.329 503.248 150.817C505.331 147.928 503.645 140.598 497.01 139.728C494.478 139.395 492.586 140.701 492.459 140.617C491.134 139.745 488.228 139.14 485.761 139.14ZM486.254 130.755C483.208 130.351 477.097 117.875 484.996 116.52C492.897 115.164 490.37 129.934 486.254 130.755ZM475.401 135.479C472.447 136.323 461.867 127.321 468.57 122.927C475.274 118.532 478.849 133.085 475.401 135.479ZM470.897 145.836C469.161 147.829 457.695 145.939 460.551 139.556C463.408 133.17 472.307 142.451 470.897 145.836ZM495.888 135.349C493.505 134.208 492.269 122.653 499.183 123.704C506.099 124.755 499.526 135.806 495.888 135.349ZM492.7 158.834C495.527 157.527 504.406 159.425 507.366 151.709C510.132 144.497 506.387 142.167 505.515 137.897C504.543 133.137 508.911 126.408 504.091 120.574C501.152 117.016 494.841 119.241 494.841 119.241C494.841 119.241 492.572 111.729 485.55 111.579C479.892 111.457 476.228 118.937 476.228 118.937C476.228 118.937 470.023 115.188 465.622 119.15C460.993 123.317 462.887 131.573 462.887 131.573C462.887 131.573 456.4 134.157 456.195 139.559C455.913 147.006 464.761 151.266 467.063 153.905C468.63 155.702 469.485 163.762 476.12 165.787C484.027 168.199 489.862 160.146 492.7 158.834ZM256.812 33.0002C256.812 42.9213 248.769 50.9639 238.848 50.9639C228.927 50.9639 220.884 42.9213 220.884 33.0002C220.884 23.0791 228.927 15.0365 238.848 15.0365C248.769 15.0365 256.812 23.0791 256.812 33.0002ZM535.697 61.9319C535.697 61.9319 533.035 61.728 532.297 59.297C530.97 54.9277 539.64 49.447 544.676 47.497C551.944 44.6828 560.533 44.0715 561.885 48.729C562.351 50.3335 560.815 52.8411 560.815 52.8411C560.815 52.8411 565.479 65.0202 564.96 67.2134C564.329 69.8794 543.8 77.12 542.263 76.4891C540.074 75.5909 535.697 61.9319 535.697 61.9319ZM183.628 54.1804C175.702 69.4183 176.397 87.1611 180.577 90.795C184.728 94.4032 210.063 92.4165 214.621 88.6089C220.3 83.8647 212.533 57.2317 207.043 52.7074C207.505 52.3224 207.883 49.8349 207.541 49.7186C206.883 49.4946 206.124 49.9752 205.445 49.9438C204.511 49.9008 204.507 48.9058 202.819 48.9585C201.946 48.9858 201.33 49.9373 200.476 50.0476C199.47 50.1775 198.88 49.0821 197.902 49.1564C196.66 49.2508 195.926 50.4187 194.75 50.6451C193.661 50.8548 193.021 50.0476 192.01 50.0476C190.858 50.0476 189.979 51.0924 188.897 51.2719C186.968 51.5919 186.592 50.5921 185.718 50.8194C184.45 50.8996 184.994 52.5355 182.952 52.0182C182.736 51.9633 183.915 54.1035 183.628 54.1804ZM434.041 98.8415C438.533 98.9462 472.386 96.0945 473.672 94.4781C476.037 91.5034 476.053 88.1752 475.018 86.3635C472.406 81.7932 467.233 82.7708 467.233 82.7708C467.233 82.7708 468.948 79.1465 466.205 75.7721C463.874 72.9044 459.313 72.5091 459.313 72.5091C459.313 72.5091 459.607 69.4339 456.827 67.5584C454.4 66.1247 452.042 65.8462 449.615 64.5455C447.377 63.3456 448.64 59.7424 448.64 59.7424C448.64 59.7424 441.184 64.6889 441.679 70.4548C441.759 71.3939 442.873 73.6866 442.873 73.6866C442.873 73.6866 436.766 75.8069 435.14 80.7567C434.045 84.0916 435.445 85.9032 435.445 85.9032C435.445 85.9032 430.792 88.1924 430.236 91.2248C429.101 97.4155 434.041 98.8415 434.041 98.8415ZM401.892 31.4597C401.892 31.4597 381.213 16.9874 380.656 1.02391C380.454 -4.7691 397.013 -33.2904 402.963 -41.3894C404.805 -43.8967 411.469 -67.2462 415.653 -67.4081C426.155 -67.8146 432.144 -53.1597 435.759 -45.5916C454.889 -50.0314 476.675 -39.7445 485.403 -32.4372C488.539 -34.8823 511.663 -39.515 512.995 -35.3494C513.443 -33.9482 510.029 -13.5789 504.173 -6.09359C502.77 1.73034 499.441 31.4404 497.453 35.6553C491.08 49.1653 455.885 48.6402 455.885 48.6402C455.885 48.6402 415.568 38.5302 401.892 31.4597ZM416.198 -8.14971C416.198 -8.14971 417.397 -10.9926 419.906 -11.1953C422.047 -11.3682 430.177 -7.45311 430.219 -4.75768C430.238 -3.54937 428.198 -3.53061 423.028 -4.34715C416.051 -5.4492 416.198 -8.14971 416.198 -8.14971ZM453.906 2.8574C454.617 0.335884 463.721 0.984753 465.527 1.64699C468.432 2.71191 468.318 7.19192 466.529 7.78211C464.208 8.54758 454.703 6.17726 453.906 2.8574ZM431.597 -17.9636C431.597 -17.9636 428.923 -15.933 430.215 -13.466C432.624 -8.86546 439.52 -12.6647 438.126 -16.6893C436.429 -21.5882 431.597 -17.9636 431.597 -17.9636ZM452.03 -8.47716C452.03 -8.47716 452.995 -5.26137 455.759 -5.60706C460.912 -6.25172 459.77 -14.0415 455.512 -14.1461C450.329 -14.2734 452.03 -8.47716 452.03 -8.47716ZM393.392 -7.29088C387.815 -4.40477 389.619 0.810787 394.887 2.37928C400.622 4.08684 405.744 4.30802 407.302 -0.422152C408.636 -4.47208 398.808 -10.0941 393.392 -7.29088ZM471.369 22.285C470.661 26.9178 476.684 28.8422 479.9 29.6139C484.346 30.6805 487.957 27.4124 486.084 23.0117C482.52 14.6398 472.065 17.7243 471.369 22.285ZM321.328 -29.703L290.701 -17.3354C290.701 -17.3354 293.631 -3.1503 280.211 -4.26786C268.204 -5.26778 272.771 -18.5589 272.771 -18.5589C272.771 -18.5589 258.147 -19.5287 261.34 -31.025C264.786 -43.4358 278.168 -34.2776 278.168 -34.2776L310.066 -46.8198C310.066 -46.8198 310.337 -59.4824 322.113 -57.762C332.334 -56.2688 328.198 -44.8149 328.198 -44.8149C328.198 -44.8149 343.745 -43.3548 338.111 -31.1464C333.94 -22.1065 321.328 -29.703 321.328 -29.703ZM347.014 33.5438C347.014 33.5438 346.046 31.0565 347.918 29.3387C351.282 26.2511 359.976 31.6948 363.913 35.3903C369.596 40.7236 373.865 48.2022 370.251 51.4369C369.007 52.5512 366.081 52.2519 366.081 52.2519C366.081 52.2519 357.121 61.7279 354.919 62.2096C352.243 62.7951 336.83 47.4229 336.733 45.7638C336.595 43.402 347.014 33.5438 347.014 33.5438ZM379.609 163.288C394.209 156.878 409.152 152.548 423.706 145.579C425.722 147.705 427.064 149.214 429.773 150.262C435.354 152.421 441.035 148.839 440.434 142.646C440.027 138.45 437.004 135.471 432.946 134.742C432.254 134.618 429.2 135.029 429.459 133.538C429.633 132.536 430.417 131.39 430.681 130.336C431.857 125.648 428.173 121.278 423.683 119.684C418.11 117.705 415.073 123.733 415.282 125.541C415.485 127.284 416.46 129.796 418.394 131.786C403.892 137.939 389.327 144.973 375.013 151.634C372.646 149.515 372.199 147.185 368.577 146.324C362.467 144.872 358.168 149.831 359.943 155.806C361.098 159.696 367.651 160.521 367.606 162.407C367.575 163.681 365.85 164.657 366.118 166.9C366.706 171.819 373.907 173.704 377.848 171.839C380.904 170.393 385.289 164.044 379.609 163.288ZM90.5089 -11.0486C98.636 -15.9087 97.4412 -23.2243 90.7341 -36.1715C100.654 -19.1395 104.467 -20.7079 112.599 -24.6747C106.832 -20.9345 103.092 -14.8869 112.065 0.763284C105.534 -10.5114 99.2488 -16.5108 90.5089 -11.0486Z" stroke="#F5C678" stroke-opacity="0.3" stroke-width="2" stroke-linecap="round" stroke-linejoin="round"/>
</g>
</g>
<defs>
<clipPath id="clip0_66_119">
<rect width="528.061" height="179.779" fill="white" transform="translate(-13.75 -15)"/>
</clipPath>
</defs>
</svg>
